# xmcd CD database file
#
# Track frame offsets:
#	150
#	23149
#	42869
#	65482
#	85144
#	107556
#	131937
#	149157
#	171360
#	195239
#	216062
#	234030
#	253528
#	269347
#	287567
#
# Disc length: 4132 seconds
#
# Revision: 0
# Processed by: cddbd v1.5.2PL0 Copyright (c) Steve Scherf et al.
# Submitted via: CDex 1.51
#
DISCID=d710220f
DTITLE=Varios Intérpretes - Pura Salsa Disco 1
DYEAR=2010
DGENRE=Salsa
TTITLE0=Que Locura Enamorarme de Ti - Eddie Santiago
TTITLE1=La Magia de Tus 15 Años - Salsa Kids
TTITLE2=Tú con Él - Frankie Ruiz
TTITLE3=Mayor que Yo - Michael Stuart
TTITLE4=Tú como Estás - Domingo Quiñones
TTITLE5=El Amor - Alex León
TTITLE6=Me Voy pa' Cali - Oscar D'León
TTITLE7=Nunca Voy a Olvidarte - India
TTITLE8=Casi Te Envidio - Andy Montañez
TTITLE9=Me Atrapa la Noche - Anthony Colón and Edgar Joel
TTITLE10=A Que No lo Haces - Héctor Tricoche
TTITLE11=Esa Chica es Mía - Johnny Rivera
TTITLE12=A Gozar - José Alberto "El Canario"
TTITLE13=Lo Que Son las Cosas - Tito Nieves
TTITLE14=Villa de Condenados - Orchestra Orchestra and Ralphie Leavitt
EXTD=YEAR: 2010
EXTT0=
EXTT1=
EXTT2=
EXTT3=
EXTT4=
EXTT5=
EXTT6=
EXTT7=
EXTT8=
EXTT9=
EXTT10=
EXTT11=
EXTT12=
EXTT13=
EXTT14=
PLAYORDER=
